<?xml version="1.0" encoding="utf-8"?>
<!-- Generator: Adobe Illustrator 22.1.0, SVG Export Plug-In . SVG Version: 6.00 Build 0)  -->
<svg version="1.1" id="Livello_1" xmlns="http://www.w3.org/2000/svg" xmlns:xlink="http://www.w3.org/1999/xlink" x="0px" y="0px"
	 viewBox="0 0 595.3 841.9" style="enable-background:new 0 0 595.3 841.9;" xml:space="preserve">
<style type="text/css">
	.st0{fill:#FFFFFF;}
</style>
<g>
	<polygon class="st0" points="299.7,424.1 308.5,421.5 308.5,441.2 328,446.5 328,397.2 337.3,399.7 337.3,458.4 299.7,448.1 	"/>
	<polygon class="st0" points="260.7,428.3 316.1,411.5 316.1,418 270.6,431 	"/>
	<polygon class="st0" points="297.1,383.8 287.5,387.1 281.6,385.2 281.6,378.9 	"/>
	<polygon class="st0" points="298.5,384.7 298.4,404.2 288.2,407.2 288.2,388.2 	"/>
	<polygon class="st0" points="308.5,401.2 299.7,403.8 299.8,383.3 280.7,377.2 280.3,377.1 280.3,409.5 278.7,410.1 271.2,412.3 
		271.2,374.3 252,368.5 252,357.9 270.7,363.9 308.5,376.4 	"/>
	<polygon class="st0" points="326.7,397.2 326.7,444.8 317.5,442.3 317.5,409.7 259,427.5 259,379.1 269.9,375.7 269.9,414 	"/>
	<polygon class="st0" points="268.3,374.8 258.3,377.9 241.3,373.4 251.4,369.8 	"/>
	<polygon class="st0" points="239.7,372.6 239.7,361.9 250.7,357.9 250.7,368.6 	"/>
	<polygon class="st0" points="298.4,424.4 298.4,448.1 288.2,451.7 288.2,427.3 297.2,424.8 	"/>
	<polygon class="st0" points="335.6,459.3 326.6,462.5 289.8,452.5 299,449.3 	"/>
	<path class="st0" d="M142.2,474.4h0.9l5.6,12.1h-1l-1.5-3.4H139l-1.5,3.4h-0.9L142.2,474.4z M145.7,482.3l-3.1-6.9l-3.2,6.9H145.7z
		"/>
	<path class="st0" d="M155.2,484.7l0.6-0.7c1.3,1.2,2.5,1.8,4.3,1.8c1.8,0,3-1,3-2.4v0c0-1.3-0.7-2-3.4-2.5c-2.9-0.6-4-1.6-4-3.4v0
		c0-1.8,1.6-3.1,3.8-3.1c1.7,0,2.9,0.5,4.1,1.5l-0.6,0.7c-1.1-1-2.3-1.4-3.6-1.4c-1.8,0-2.9,1-2.9,2.3v0c0,1.3,0.6,2,3.5,2.6
		c2.8,0.6,3.9,1.6,3.9,3.3v0c0,1.9-1.7,3.3-4,3.3C158.1,486.6,156.7,486,155.2,484.7z"/>
	<path class="st0" d="M171.2,484.7l0.6-0.7c1.3,1.2,2.5,1.8,4.3,1.8c1.8,0,3-1,3-2.4v0c0-1.3-0.7-2-3.4-2.5c-2.9-0.6-4-1.6-4-3.4v0
		c0-1.8,1.6-3.1,3.8-3.1c1.7,0,2.9,0.5,4.1,1.5l-0.6,0.7c-1.1-1-2.3-1.4-3.6-1.4c-1.8,0-2.9,1-2.9,2.3v0c0,1.3,0.6,2,3.5,2.6
		c2.8,0.6,3.9,1.6,3.9,3.3v0c0,1.9-1.7,3.3-4,3.3C174.1,486.6,172.6,486,171.2,484.7z"/>
	<path class="st0" d="M187.5,480.5L187.5,480.5c0-3.3,2.4-6.2,6-6.2s6,2.9,6,6.2v0c0,3.3-2.4,6.2-6,6.2
		C189.9,486.7,187.5,483.8,187.5,480.5z M198.6,480.5L198.6,480.5c0-3-2.2-5.4-5.1-5.4c-3,0-5.1,2.4-5.1,5.4v0c0,3,2.2,5.4,5.1,5.4
		S198.6,483.5,198.6,480.5z"/>
	<path class="st0" d="M207.2,480.5L207.2,480.5c0-3.4,2.5-6.2,6-6.2c2.1,0,3.4,0.8,4.7,1.9l-0.6,0.6c-1-1-2.2-1.8-4-1.8
		c-2.9,0-5,2.3-5,5.4v0c0,3,2.2,5.4,5.1,5.4c1.7,0,2.9-0.7,4.1-1.9l0.6,0.6c-1.3,1.2-2.6,2.1-4.8,2.1
		C209.7,486.7,207.2,484,207.2,480.5z"/>
	<path class="st0" d="M225.6,474.5h0.9v12h-0.9V474.5z"/>
	<path class="st0" d="M239.8,474.4h0.9l5.6,12.1h-1l-1.5-3.4h-7.1l-1.5,3.4h-0.9L239.8,474.4z M243.4,482.3l-3.1-6.9l-3.2,6.9H243.4
		z"/>
	<path class="st0" d="M253.3,486l8.2-10.7h-7.9v-0.8h9.2v0.5l-8.2,10.7h8.2v0.8h-9.5L253.3,486L253.3,486z"/>
	<path class="st0" d="M270.9,474.5h0.9v12h-0.9V474.5z"/>
	<path class="st0" d="M280.1,480.5L280.1,480.5c0-3.3,2.4-6.2,6-6.2s6,2.9,6,6.2v0c0,3.3-2.4,6.2-6,6.2
		C282.5,486.7,280.1,483.8,280.1,480.5z M291.2,480.5L291.2,480.5c0-3-2.2-5.4-5.1-5.4c-3,0-5.1,2.4-5.1,5.4v0c0,3,2.2,5.4,5.1,5.4
		S291.2,483.5,291.2,480.5z"/>
	<path class="st0" d="M300.3,474.5h0.8l8.3,10.4v-10.4h0.9v12h-0.7l-8.4-10.6v10.6h-0.9L300.3,474.5L300.3,474.5z"/>
	<path class="st0" d="M319,474.5h8.5v0.8h-7.6v4.7h6.9v0.8h-6.9v4.8h7.7v0.8H319V474.5z"/>
	<path class="st0" d="M349.1,475.3H345v-0.8h9.2v0.8H350v11.2h-0.9L349.1,475.3L349.1,475.3z"/>
	<path class="st0" d="M362,474.5h8.5v0.8h-7.6v4.7h6.9v0.8h-6.9v4.8h7.7v0.8H362V474.5z"/>
	<path class="st0" d="M378.1,480.5L378.1,480.5c0-3.4,2.5-6.2,6-6.2c2.1,0,3.4,0.8,4.7,1.9l-0.6,0.6c-1-1-2.2-1.8-4-1.8
		c-2.9,0-5,2.3-5,5.4v0c0,3,2.2,5.4,5.1,5.4c1.7,0,2.9-0.7,4.1-1.9l0.6,0.6c-1.3,1.2-2.6,2.1-4.8,2.1
		C380.6,486.7,378.1,484,378.1,480.5z"/>
	<path class="st0" d="M396.4,474.5h0.9v5.5h7.7v-5.5h0.9v12H405v-5.6h-7.7v5.6h-0.9V474.5z"/>
	<path class="st0" d="M414.5,474.5h0.9v11.2h7v0.8h-7.9V474.5z"/>
	<path class="st0" d="M434.8,474.4h0.9l5.6,12.1h-1l-1.5-3.4h-7.1l-1.5,3.4h-0.9L434.8,474.4z M438.4,482.3l-3.1-6.9l-3.2,6.9H438.4
		z"/>
	<path class="st0" d="M448.9,474.5h4.9c1.4,0,2.4,0.4,3.1,1.1c0.5,0.5,0.8,1.1,0.8,1.9v0c0,1.6-1.1,2.4-2,2.8
		c1.4,0.4,2.7,1.2,2.7,2.9v0c0,2-1.7,3.3-4.3,3.3h-5.2L448.9,474.5L448.9,474.5z M456.8,477.5c0-1.3-1.1-2.2-3-2.2h-4v4.7h4
		C455.5,480,456.8,479.2,456.8,477.5L456.8,477.5L456.8,477.5z M453.9,480.8h-4.1v4.8h4.3c2.1,0,3.4-0.9,3.4-2.4v0
		C457.5,481.7,456.2,480.8,453.9,480.8z"/>
</g>
</svg>
