<svg id="Layer_1" data-name="Layer 1" xmlns="http://www.w3.org/2000/svg" viewBox="0 0 18.61 18.61"><defs><style>.cls-1{fill:#fff;}</style></defs><title>cd-icon-text</title><path class="cls-1" d="M5.25,8.9,9.21,5,7,2.74a1.12,1.12,0,0,0-1.63,0L3,5.06A1.14,1.14,0,0,0,3,6.69Z" transform="translate(-2.69 -2.39)"/><path class="cls-1" d="M18.75,14.49l-4,4L17,20.65a1.07,1.07,0,0,0,.82.35h3.49V17.51A1.05,1.05,0,0,0,21,16.7Z" transform="translate(-2.69 -2.39)"/><path class="cls-1" d="M21,7.39,16.3,2.74a1.11,1.11,0,0,0-1.62,0L13.16,4.25l2,2L13.51,7.86l-2-2L9.67,7.74l2,2L10,11.35l-2-2L6.18,11.23l2,2L6.53,14.84l-2-2L3,14.37A1.14,1.14,0,0,0,3,16L7.7,20.65a1.11,1.11,0,0,0,1.62,0L21,9A1.14,1.14,0,0,0,21,7.39Z" transform="translate(-2.69 -2.39)"/></svg>