<?xml version="1.0" encoding="utf-8"?>
<!-- Generator: Adobe Illustrator 22.1.0, SVG Export Plug-In . SVG Version: 6.00 Build 0)  -->
<svg version="1.1" id="Livello_1" xmlns="http://www.w3.org/2000/svg" xmlns:xlink="http://www.w3.org/1999/xlink" x="0px" y="0px"
	 viewBox="0 0 595.3 841.9" style="enable-background:new 0 0 595.3 841.9;" xml:space="preserve">
<style type="text/css">
	.st0{fill:#FFFFFF;}
</style>
<g>
	<polygon class="st0" points="299.7,424.1 308.5,421.5 308.5,441.2 328,446.5 328,397.2 337.3,399.7 337.3,458.4 299.7,448.1 	"/>
	<polygon class="st0" points="260.7,428.3 316.1,411.5 316.1,418 270.6,431 	"/>
	<polygon class="st0" points="297.1,383.8 287.5,387.1 281.6,385.2 281.6,378.9 	"/>
	<polygon class="st0" points="298.5,384.7 298.4,404.2 288.2,407.2 288.2,388.2 	"/>
	<polygon class="st0" points="308.5,401.2 299.7,403.8 299.8,383.3 280.7,377.2 280.3,377.1 280.3,409.5 278.7,410.1 271.2,412.3 
		271.2,374.3 252,368.5 252,357.9 270.7,363.9 308.5,376.4 	"/>
	<polygon class="st0" points="326.7,397.2 326.7,444.8 317.5,442.3 317.5,409.7 259,427.5 259,379.1 269.9,375.7 269.9,414 	"/>
	<polygon class="st0" points="268.3,374.8 258.3,377.9 241.3,373.4 251.4,369.8 	"/>
	<polygon class="st0" points="239.7,372.6 239.7,361.9 250.7,357.9 250.7,368.6 	"/>
	<polygon class="st0" points="298.4,424.4 298.4,448.1 288.2,451.7 288.2,427.3 297.2,424.8 	"/>
	<polygon class="st0" points="335.6,459.3 326.6,462.5 289.8,452.5 299,449.3 	"/>
</g>
</svg>
